<svg width="100" height="92" viewBox="0 0 100 92" fill="none" xmlns="http://www.w3.org/2000/svg">
<g clip-path="url(#clip0_6_997)">
<path d="M0.000831032 3.48774C0.829785 0.891238 2.66221 -0.0543082 5.29783 0.00239123C9.43013 0.0911926 13.5653 0.0232366 17.6993 0.030324C18.087 0.0311579 18.4884 0.0361608 18.8586 0.133717C19.5799 0.323827 19.9481 0.856218 19.904 1.58914C19.8604 2.31706 19.4453 2.80109 18.7044 2.92241C18.3862 2.97453 18.0558 2.96285 17.7309 2.96327C13.4669 2.96577 9.20243 2.96244 4.93841 2.96619C3.28839 2.96744 2.93146 3.32973 2.93105 4.97985C2.93022 14.8105 2.92939 24.6412 2.93188 34.4723C2.9323 35.8961 3.31291 36.2955 4.71403 36.2959C23.1056 36.2996 41.4972 36.2988 59.8887 36.2967C60.1144 36.2967 60.34 36.2692 60.7289 36.2442C60.7289 35.5 60.7247 34.7667 60.7297 34.0333C60.7522 30.8085 63.0483 28.3901 66.0899 28.3842C69.1323 28.3784 71.46 30.8031 71.4849 34.0075C71.4903 34.7208 71.4858 35.4345 71.4858 36.2296C71.8618 36.2558 72.1726 36.2963 72.4838 36.2963C80.0359 36.2996 87.5878 36.3005 95.1394 36.2975C96.7267 36.2971 97.0687 35.9423 97.0691 34.3239C97.0699 24.5583 97.0699 14.793 97.0691 5.02738C97.0691 3.31806 96.7213 2.96619 95.0098 2.96619C72.0613 2.96494 49.1123 2.96535 26.1638 2.9641C25.7736 2.9641 25.3797 2.97828 24.9937 2.93284C24.1934 2.83778 23.7663 2.32332 23.7363 1.5537C23.7085 0.827868 24.0812 0.295477 24.8142 0.119959C25.157 0.0378284 25.5227 0.0294902 25.8783 0.0294902C48.9573 0.0257381 72.0363 0.0249042 95.1149 0.0274057C98.331 0.0278226 99.9985 1.70087 99.9989 4.91023C100 14.7409 100.001 24.5716 99.9989 34.4027C99.9985 37.5641 98.3381 39.2359 95.1872 39.2376C87.7005 39.2413 80.2137 39.2388 72.7269 39.2388C72.343 39.2388 71.9595 39.2388 71.5323 39.2388C71.5323 40.8093 71.5323 42.2693 71.5323 43.7948C74.8614 42.6466 77.3682 43.6255 79.0016 46.7519C82.9652 44.9125 86.5495 47.1538 87.1383 50.8643C88.2942 50.8055 89.4548 50.5745 90.5634 50.725C92.9842 51.054 94.8241 53.224 94.9059 55.6796C94.9604 57.3109 94.9379 58.9456 94.9163 60.5782C94.9034 61.5617 94.2959 62.1742 93.4317 62.1567C92.5782 62.1396 92.0143 61.5209 92.0006 60.5174C91.9807 59.0807 92.006 57.6432 91.9915 56.2061C91.9749 54.6031 90.9357 53.4871 89.5146 53.5171C88.1218 53.5463 87.1349 54.6319 87.1158 56.1907C87.0992 57.5294 87.1225 58.8689 87.1079 60.208C87.0963 61.2845 86.5437 61.9115 85.6478 61.9107C84.7532 61.9103 84.1918 61.2816 84.1869 60.2064C84.1744 57.4302 84.1869 54.654 84.1802 51.8778C84.1765 50.1539 83.2328 49.0416 81.7744 49.0174C80.2943 48.9928 79.3045 50.1422 79.3004 51.912C79.2942 54.6227 79.3025 57.3334 79.2966 60.0446C79.2942 61.2691 78.7556 61.929 77.8016 61.909C76.8858 61.8898 76.3731 61.2482 76.371 60.0754C76.3648 56.352 76.3764 52.6291 76.3639 48.9057C76.3594 47.5244 75.6468 46.6064 74.428 46.3271C72.8782 45.9715 71.5045 47.1321 71.4941 48.8706C71.4721 52.5286 71.4874 56.1865 71.4849 59.8445C71.4849 60.138 71.5144 60.4423 71.4492 60.7229C71.2843 61.4296 70.8459 61.8732 70.0909 61.904C69.2898 61.9369 68.7953 61.5079 68.6054 60.7613C68.519 60.4215 68.5572 60.0475 68.5572 59.689C68.5551 51.2624 68.5576 42.8363 68.5502 34.4098C68.5497 33.9579 68.5364 33.4863 68.4118 33.0586C68.0823 31.9279 67.0036 31.2246 65.8801 31.3372C64.7 31.4556 63.778 32.3869 63.6757 33.5856C63.6454 33.9424 63.6591 34.3035 63.6591 34.6628C63.6583 43.0894 63.6529 51.5155 63.6654 59.942C63.667 61.0085 63.3803 61.8823 62.3739 62.3722C61.4236 62.8341 60.3732 62.5277 59.6161 61.5726C58.4623 60.1155 57.3479 58.6263 56.1753 57.185C55.3891 56.2182 54.3528 55.8468 53.122 56.184C51.9715 56.4992 51.3096 57.2943 51.0544 58.4324C50.8284 59.4401 51.2452 60.2718 51.8186 61.0669C54.9865 65.4556 58.1153 69.8732 61.316 74.2378C62.8219 76.2915 63.5897 78.5115 63.5203 81.0722C63.4497 83.6799 63.505 86.291 63.505 88.9792C71.3295 88.9792 79.0872 88.9792 86.9712 88.9792C86.9712 88.5694 86.9683 88.1884 86.9716 87.8069C86.9974 85.032 86.9575 82.2541 87.0722 79.4825C87.1657 77.2204 88.0981 75.235 89.643 73.5953C91.2211 71.9206 92.0679 70.0066 92.0048 67.6819C91.9757 66.6013 92.5566 65.9764 93.4516 65.9709C94.352 65.9655 94.8972 66.5913 94.923 67.6632C94.9915 70.5348 94.1239 73.0721 92.1402 75.1629C90.5696 76.818 89.8724 78.7621 89.8944 81.0263C89.9239 84.031 89.9073 87.0356 89.899 90.0407C89.8948 91.5153 89.4361 91.9931 87.9776 91.9943C79.4816 92.0018 70.9859 92.0022 62.4899 91.9935C61.0646 91.9922 60.5801 91.4723 60.5768 90.0077C60.5702 86.9051 60.5477 83.8021 60.5851 80.6999C60.6055 79.0272 60.1019 77.5764 59.13 76.2335C55.8042 71.6371 52.4722 67.0445 49.2017 62.4085C46.8303 59.0461 48.3557 54.5227 52.2133 53.3866C54.5926 52.6862 56.6577 53.3253 58.3085 55.1693C59.1038 56.0573 59.804 57.0316 60.6687 58.1202C60.6687 51.7344 60.6687 45.5541 60.6687 39.2392C60.2099 39.2392 59.7637 39.2392 59.3174 39.2392C41.284 39.2392 23.2506 39.2138 5.21722 39.2672C2.59947 39.2751 0.836434 38.3487 0 35.8223C0.000831032 25.0435 0.000831032 14.2656 0.000831032 3.48774Z" fill="black"/>
<path d="M45.3116 13.0007C44.4826 12.9611 43.9774 13.4452 43.8108 14.2485C43.7522 14.5316 43.7754 14.833 43.775 15.1265C43.7721 16.7216 43.7738 18.3171 43.7738 19.9122C43.7106 19.931 43.647 19.9493 43.5839 19.9681C43.3794 19.6834 43.1704 19.4015 42.9714 19.113C41.7311 17.317 40.4933 15.5193 39.2538 13.7224C38.8362 13.1171 38.2121 12.7877 37.5768 13.1162C37.1318 13.3464 36.5866 13.9325 36.5766 14.3711C36.496 17.8931 36.5101 21.4185 36.5492 24.9422C36.5583 25.7644 37.1151 26.2396 37.9491 26.2851C38.7406 26.328 39.3863 25.761 39.432 24.9189C39.4848 23.9425 39.4512 22.9619 39.4528 21.983C39.4545 21.1567 39.4532 20.3304 39.4532 19.2427C39.8164 19.7367 40.0104 19.9881 40.1908 20.2491C41.3754 21.9647 42.553 23.6852 43.7426 25.3975C44.1673 26.0091 44.7465 26.3518 45.5015 26.1413C46.232 25.9374 46.6816 25.4163 46.6857 24.6454C46.7044 21.2192 46.7094 17.7931 46.6832 14.3669C46.6766 13.5223 46.1293 13.0399 45.3116 13.0007Z" fill="black"/>
<path d="M27.2483 12.9682C23.5772 13.0012 20.6403 15.9921 20.657 19.6808C20.6736 23.3734 23.647 26.3268 27.3223 26.3005C30.9921 26.2742 33.9742 23.2596 33.9443 19.6058C33.9144 15.9483 30.8753 12.9357 27.2483 12.9682ZM27.2728 23.3596C25.2031 23.353 23.5814 21.7116 23.5872 19.63C23.5926 17.5713 25.2609 15.8987 27.299 15.9087C29.3234 15.9187 31.0228 17.6322 31.0149 19.6558C31.0066 21.6966 29.3196 23.3663 27.2728 23.3596Z" fill="black"/>
<path d="M65.6956 14.1456C65.4109 13.391 64.8537 12.9816 64.0605 12.9899C63.3109 12.9974 62.7674 13.3914 62.4953 14.1035C61.2072 17.4758 59.9116 20.8457 58.6509 24.2285C58.3222 25.1107 58.6804 25.9024 59.42 26.1942C60.2199 26.5098 61.1187 26.1834 61.3459 25.2453C61.6846 23.8466 62.5352 23.5756 63.7534 23.7557C63.849 23.7699 63.9479 23.7574 64.3127 23.7574C65.4226 23.5206 66.483 23.6965 66.8445 25.3783C67.024 26.213 68.0054 26.504 68.755 26.18C69.4851 25.8644 69.8083 25.0877 69.4759 24.1901C68.2331 20.8353 66.9587 17.4925 65.6956 14.1456ZM63.1231 20.731C63.421 19.9335 63.6969 19.1947 64.0796 18.1704C64.4611 19.1868 64.7312 19.9068 65.0403 20.731C64.3805 20.731 63.8025 20.731 63.1231 20.731Z" fill="black"/>
<path d="M79.7171 22.4166C79.2165 22.7939 78.6331 23.1891 78.0389 23.2892C76.0008 23.6331 74.1833 22.1819 73.8821 20.0919C73.607 18.1829 74.9944 16.2172 76.9631 16.0296C77.8374 15.9462 78.793 16.2668 79.6503 16.5753C80.6209 16.9247 81.5271 16.7008 81.8363 15.8353C82.1168 15.0498 81.7906 14.382 80.8656 13.8479C78.4827 12.4717 75.4236 12.7548 73.2962 14.5483C71.177 16.3347 70.383 19.3098 71.3291 21.9188C72.2898 24.5687 74.822 26.3243 77.6491 26.2993C79.2572 26.2893 80.6404 25.7335 81.7519 24.5599C82.4238 23.8508 82.4645 22.9686 81.8928 22.3707C81.2949 21.7462 80.5216 21.81 79.7171 22.4166Z" fill="black"/>
<path d="M15.4655 22.4124C15.0429 22.7489 14.5792 23.1233 14.076 23.2525C12.0928 23.762 10.1457 22.4587 9.68069 20.3933C9.24398 18.4531 10.5196 16.3252 12.4921 16.0688C13.4191 15.9483 14.4521 16.2593 15.3712 16.5707C16.3493 16.9022 17.2547 16.7062 17.5672 15.8499C17.8514 15.0699 17.5215 14.3815 16.6107 13.8533C14.2318 12.4746 11.1674 12.7531 9.03996 14.5408C6.9146 16.3272 6.11889 19.2877 7.06086 21.9067C8.01489 24.5591 10.5387 26.3168 13.3709 26.3001C15.0151 26.2893 16.4258 25.7206 17.5418 24.4966C18.1634 23.8149 18.1826 22.964 17.6357 22.3824C17.0411 21.75 16.2504 21.7875 15.4655 22.4124Z" fill="black"/>
<path d="M56.4753 12.9811C55.6974 12.9299 54.9146 12.959 54.1338 12.9603C52.9953 12.9624 51.8543 12.9286 50.7191 12.9924C49.8499 13.0416 49.3163 13.6686 49.3242 14.4603C49.3321 15.2562 49.8827 15.8195 50.7553 15.8837C51.1708 15.9145 51.5909 15.8891 52.1535 15.8891C52.1535 18.8708 52.1468 21.7074 52.1568 24.5437C52.1605 25.6293 52.6974 26.2655 53.5783 26.2901C54.5095 26.3159 55.0754 25.6718 55.0795 24.5328C55.0891 22.0193 55.0829 19.5057 55.0829 16.9922C55.0829 16.6508 55.0829 16.3093 55.0829 15.8945C55.6239 15.8945 56.0107 15.9112 56.3963 15.8912C57.325 15.8432 57.9366 15.2841 57.9612 14.482C57.9853 13.6907 57.3794 13.0403 56.4753 12.9811Z" fill="black"/>
<path d="M92.0663 13.0249C90.0219 12.954 87.9714 12.9549 85.9274 13.0303C85.1064 13.0608 84.6689 13.6899 84.7166 14.5283C84.7644 15.3709 85.2668 15.8253 86.0999 15.8816C86.5167 15.9099 86.9367 15.8866 87.5168 15.8866C87.5168 16.3777 87.5168 16.7312 87.5168 17.0848C87.5168 19.5645 87.5085 22.0447 87.521 24.5245C87.5268 25.6547 88.1056 26.3097 89.0264 26.2897C89.9197 26.2701 90.4379 25.6556 90.4425 24.5524C90.4528 22.0401 90.4458 19.5274 90.4462 17.0147C90.4462 16.6712 90.4462 16.3281 90.4462 15.8841C91.04 15.8841 91.4912 15.9095 91.9387 15.8787C92.7806 15.8211 93.2725 15.3171 93.3141 14.5049C93.3556 13.6832 92.8803 13.0533 92.0663 13.0249Z" fill="black"/>
</g>
<defs>
<clipPath id="clip0_6_997">
<rect width="100" height="92" fill="white"/>
</clipPath>
</defs>
</svg>
