 <svg xmlns="http://www.w3.org/2000/svg" width="260" height="90" viewBox="0 0 260 90"
                                fill="none">
                                <path
                                    d="M45.9006 55.9063C45.9006 55.9063 47.5852 71.9888 45.9006 79.3721C45.9006 79.3721 46.9408 54.5511 31.7178 29.0441L22.3455 38.4742C22.3455 38.4742 38.5238 61.3215 43.3173 88.1331L0 45.0478L45.2845 0L65.3971 20.0131L45.9006 55.9063Z"
                                    fill="#B61F24" />
                                <path d="M90.5633 45.0478L45.3749 90L66.9403 21.537L90.5633 45.0478Z"
                                    fill="url(#paint0_linear_3164_443)" />
                                <path
                                    d="M109.636 32.6204H115.639L109.777 55.0515H103.627L97.765 32.6204H103.768L106.702 43.7826L109.636 32.6204Z"
                                    fill="url(#paint1_linear_3164_443)" />
                                <path
                                    d="M139.782 55.0515H133.666V54.9447H133.558V37.3046H128.092L128.024 55.0515H121.908V32.5867H139.822L139.782 55.0515Z"
                                    fill="url(#paint2_linear_3164_443)" />
                                <path
                                    d="M146.435 32.5867L161.201 32.553C162.094 32.553 162.806 32.7554 163.337 33.1659C163.869 33.5764 164.23 34.2455 164.423 35.1846C164.4 38.0412 164.389 40.9091 164.389 43.7882C164.389 46.6673 164.4 49.6814 164.423 52.8247C164.061 54.3374 162.987 55.0909 161.201 55.0909H146.435V32.5867ZM157.945 37.4114H152.552L152.518 50.1593H157.945V37.4114Z"
                                    fill="url(#paint3_linear_3164_443)" />
                                <path
                                    d="M181.228 52.2062L181.268 62.1087L175.112 64.3018L175.078 55.1584V37.2652H169.216V32.5473L184.631 32.6598V37.2652H181.194V52.2062H181.228Z"
                                    fill="url(#paint4_linear_3164_443)" />
                                <path
                                    d="M190.923 50.2605L202.466 50.2268L202.5 46.1218H194.139C192.353 46.1218 191.279 45.3683 190.917 43.8557C190.917 43.4733 190.923 43.0628 190.934 42.6298C190.946 42.1968 190.951 41.7919 190.951 41.4039H190.917V35.179C191.109 34.2399 191.471 33.5708 192.003 33.1603C192.534 32.7554 193.246 32.5473 194.139 32.5473H208.904C208.492 33.7001 208.147 34.6673 207.853 35.4433C207.565 36.2249 207.322 36.866 207.129 37.3721H205.321L197.395 37.4058V41.4039L205.716 41.3702C206.609 41.3702 207.322 41.5726 207.853 41.9831C208.384 42.3936 208.746 43.0628 208.938 43.9963C208.938 44.0469 208.933 44.0975 208.921 44.1593C208.91 44.2212 208.904 44.2718 208.904 44.3224H208.978V52.7123C208.616 54.2249 207.542 54.9784 205.756 54.9784L201.087 55.0515V55.0853H192.692L190.923 50.2605Z"
                                    fill="url(#paint5_linear_3164_443)" />
                                <path d="M218.622 50.5136H212.539V55.0515H218.622V50.5136Z"
                                    fill="url(#paint6_linear_3164_443)" />
                                <path
                                    d="M232.222 32.6204H238.231L232.364 55.0515H226.213L220.351 32.6204H226.36L229.288 43.7826L232.222 32.6204Z"
                                    fill="url(#paint7_linear_3164_443)" />
                                <path
                                    d="M259.96 55.0515H253.844V54.9447H253.737V37.3046H248.27L248.203 55.0515H242.086V32.5867H260L259.96 55.0515Z"
                                    fill="url(#paint8_linear_3164_443)" />
                                <path
                                    d="M103.796 66.8491L101.094 72.911H100.461L97.765 66.8491H98.4603L100.789 72.1181L103.141 66.8491H103.796Z"
                                    fill="#1E1E1E" />
                                <path
                                    d="M104.509 67.2315C104.424 67.1471 104.379 67.0403 104.379 66.9222C104.379 66.8041 104.424 66.7029 104.509 66.6186C104.594 66.5342 104.701 66.4892 104.831 66.4892C104.961 66.4892 105.068 66.5286 105.153 66.6129C105.238 66.6973 105.283 66.7985 105.283 66.911C105.283 67.0403 105.238 67.1471 105.153 67.2315C105.068 67.3158 104.961 67.3608 104.831 67.3608C104.701 67.3608 104.594 67.3215 104.509 67.2315ZM104.52 68.3561H105.136V72.911H104.52V68.3561Z"
                                    fill="#1E1E1E" />
                                <path
                                    d="M110.846 70.8247H107.013C107.047 71.2971 107.228 71.6795 107.561 71.9719C107.889 72.2643 108.307 72.4105 108.816 72.4105C109.099 72.4105 109.359 72.3599 109.602 72.2587C109.845 72.1575 110.048 72.0112 110.218 71.8144L110.569 72.2137C110.365 72.4555 110.111 72.6411 109.805 72.7704C109.5 72.8997 109.167 72.9616 108.799 72.9616C108.33 72.9616 107.912 72.8604 107.55 72.6635C107.188 72.4667 106.906 72.1912 106.702 71.8369C106.499 71.4827 106.397 71.089 106.397 70.6448C106.397 70.2006 106.493 69.8013 106.691 69.4527C106.883 69.0984 107.154 68.8285 107.493 68.6317C107.833 68.4349 108.217 68.3393 108.635 68.3393C109.059 68.3393 109.438 68.4349 109.777 68.6317C110.116 68.8285 110.376 69.0984 110.569 69.4471C110.761 69.7957 110.857 70.1949 110.857 70.6448L110.846 70.8247ZM107.522 69.2727C107.222 69.5539 107.053 69.9194 107.013 70.3693H110.258C110.218 69.9194 110.048 69.5539 109.749 69.2727C109.449 68.9916 109.076 68.851 108.63 68.851C108.194 68.851 107.821 68.9916 107.522 69.2727Z"
                                    fill="#1E1E1E" />
                                <path
                                    d="M114.525 72.6354C114.407 72.7366 114.265 72.821 114.096 72.8716C113.926 72.9278 113.745 72.956 113.559 72.956C113.129 72.956 112.801 72.8379 112.564 72.6073C112.327 72.3768 112.213 72.0506 112.213 71.6289V68.8735H111.394V68.3561H112.213V67.3608H112.83V68.3561H114.22V68.8735H112.83V71.5951C112.83 71.865 112.897 72.0731 113.033 72.2137C113.169 72.3543 113.367 72.4274 113.621 72.4274C113.751 72.4274 113.87 72.4049 113.988 72.3655C114.107 72.3261 114.209 72.2699 114.299 72.1912L114.525 72.6354Z"
                                    fill="#1E1E1E" />
                                <path
                                    d="M123.152 66.8491V72.911H122.62L118.703 67.9963V72.911H118.058V66.8491H118.59L122.519 71.7694V66.8491H123.152Z"
                                    fill="#1E1E1E" />
                                <path
                                    d="M127.985 68.7723C128.301 69.0703 128.465 69.5089 128.465 70.0937V72.9166H127.872V72.2081C127.73 72.4442 127.527 72.6298 127.256 72.7591C126.984 72.8941 126.668 72.956 126.295 72.956C125.786 72.956 125.379 72.8379 125.074 72.5904C124.774 72.3486 124.621 72.0281 124.621 71.6289C124.621 71.2409 124.763 70.9316 125.045 70.6954C125.328 70.4592 125.775 70.3411 126.391 70.3411H127.843V70.0656C127.843 69.672 127.73 69.3739 127.516 69.1715C127.295 68.9691 126.973 68.8622 126.549 68.8622C126.261 68.8622 125.978 68.9072 125.712 69.0028C125.447 69.0984 125.215 69.2277 125.023 69.3964L124.746 68.9353C124.977 68.7385 125.254 68.5867 125.582 68.4799C125.91 68.373 126.249 68.3224 126.611 68.3224C127.205 68.3224 127.663 68.4742 127.985 68.7723ZM127.289 72.2306C127.538 72.0731 127.725 71.8426 127.849 71.5445V70.8023H126.413C125.628 70.8023 125.238 71.0722 125.238 71.6176C125.238 71.8819 125.339 72.09 125.543 72.2474C125.746 72.3992 126.029 72.478 126.396 72.478C126.741 72.4724 127.035 72.3936 127.289 72.2306Z"
                                    fill="#1E1E1E" />
                                <path
                                    d="M137.204 68.8172C137.532 69.1434 137.696 69.6326 137.696 70.2737V72.9166H137.08V70.3355C137.08 69.8632 136.967 69.5033 136.735 69.2559C136.504 69.0084 136.181 68.8847 135.763 68.8847C135.288 68.8847 134.915 69.0309 134.638 69.3233C134.367 69.6157 134.231 70.015 134.231 70.5323V72.9222H133.615V70.3411C133.615 69.8688 133.502 69.5089 133.27 69.2615C133.038 69.0141 132.716 68.8904 132.292 68.8904C131.823 68.8904 131.45 69.0366 131.173 69.329C130.896 69.6214 130.76 70.0206 130.76 70.538V72.9278H130.144V68.373H130.738V69.2052C130.902 68.9297 131.128 68.716 131.416 68.5642C131.704 68.4124 132.038 68.3393 132.417 68.3393C132.801 68.3393 133.134 68.418 133.411 68.5811C133.694 68.7441 133.903 68.9803 134.045 69.3008C134.214 69.0028 134.457 68.7666 134.774 68.5979C135.09 68.4292 135.452 68.3449 135.859 68.3449C136.424 68.3224 136.877 68.4911 137.204 68.8172Z"
                                    fill="#1E1E1E" />
                                <path
                                    d="M141.789 66.8491H144.27C144.915 66.8491 145.486 66.9784 145.978 67.2371C146.469 67.4958 146.854 67.8501 147.125 68.3112C147.396 68.7723 147.532 69.2952 147.532 69.88C147.532 70.4649 147.396 70.9934 147.125 71.4489C146.854 71.91 146.469 72.2643 145.978 72.523C145.486 72.7816 144.915 72.911 144.27 72.911H141.789V66.8491ZM144.237 72.3599C144.768 72.3599 145.237 72.253 145.638 72.045C146.04 71.8369 146.351 71.5445 146.571 71.1678C146.792 70.7966 146.905 70.3693 146.905 69.88C146.905 69.3964 146.792 68.9691 146.571 68.5923C146.351 68.2212 146.04 67.9288 145.638 67.7151C145.237 67.507 144.774 67.4002 144.237 67.4002H142.433V72.3543H144.237V72.3599Z"
                                    fill="#1E1E1E" />
                                <path
                                    d="M148.838 67.2315C148.753 67.1471 148.708 67.0403 148.708 66.9222C148.708 66.8041 148.753 66.7029 148.838 66.6186C148.923 66.5342 149.03 66.4892 149.16 66.4892C149.29 66.4892 149.398 66.5286 149.482 66.6129C149.567 66.6973 149.612 66.7985 149.612 66.911C149.612 67.0403 149.567 67.1471 149.482 67.2315C149.398 67.3158 149.29 67.3608 149.16 67.3608C149.03 67.3608 148.928 67.3215 148.838 67.2315ZM148.849 68.3561H149.465V72.911H148.849V68.3561Z"
                                    fill="#1E1E1E" />
                                <path
                                    d="M155.429 68.3561V72.3543C155.429 73.1303 155.237 73.7038 154.858 74.075C154.479 74.4461 153.903 74.6317 153.14 74.6317C152.716 74.6317 152.314 74.5698 151.936 74.4461C151.557 74.3224 151.246 74.1481 151.009 73.9288L151.319 73.462C151.54 73.6589 151.811 73.8107 152.122 73.9232C152.439 74.03 152.772 74.0862 153.117 74.0862C153.699 74.0862 154.123 73.9513 154.395 73.6814C154.666 73.4114 154.802 72.9953 154.802 72.433V71.8538C154.609 72.1406 154.361 72.3599 154.05 72.5117C153.739 72.6635 153.394 72.7366 153.021 72.7366C152.591 72.7366 152.201 72.6411 151.851 72.4555C151.5 72.2699 151.223 72.0056 151.026 71.6682C150.828 71.3308 150.726 70.9485 150.726 70.5211C150.726 70.0937 150.828 69.7113 151.026 69.3796C151.223 69.0422 151.5 68.7835 151.851 68.5979C152.201 68.4124 152.591 68.3224 153.027 68.3224C153.417 68.3224 153.767 68.4011 154.078 68.5586C154.389 68.716 154.643 68.941 154.836 69.2334V68.3618H155.429V68.3561ZM153.982 71.9831C154.248 71.8425 154.457 71.6457 154.604 71.3927C154.751 71.1396 154.824 70.8472 154.824 70.5267C154.824 70.2006 154.751 69.9138 154.604 69.6664C154.457 69.4133 154.248 69.2165 153.988 69.0759C153.722 68.9353 153.422 68.8622 153.089 68.8622C152.761 68.8622 152.461 68.9297 152.196 69.0703C151.93 69.2109 151.726 69.4077 151.58 69.6607C151.433 69.9138 151.359 70.2006 151.359 70.5267C151.359 70.8472 151.433 71.1396 151.58 71.3927C151.726 71.6457 151.936 71.8425 152.196 71.9831C152.461 72.1237 152.755 72.1968 153.089 72.1968C153.422 72.1968 153.716 72.1237 153.982 71.9831Z"
                                    fill="#1E1E1E" />
                                <path
                                    d="M157.153 67.2315C157.068 67.1471 157.023 67.0403 157.023 66.9222C157.023 66.8041 157.068 66.7029 157.153 66.6186C157.238 66.5342 157.345 66.4892 157.475 66.4892C157.605 66.4892 157.713 66.5286 157.798 66.6129C157.882 66.6973 157.928 66.7985 157.928 66.911C157.928 67.0403 157.882 67.1471 157.798 67.2315C157.713 67.3158 157.605 67.3608 157.475 67.3608C157.345 67.3608 157.238 67.3215 157.153 67.2315ZM157.159 68.3561H157.775V72.911H157.159V68.3561Z"
                                    fill="#1E1E1E" />
                                <path
                                    d="M161.913 72.6354C161.794 72.7366 161.653 72.821 161.483 72.8716C161.314 72.9278 161.133 72.956 160.946 72.956C160.517 72.956 160.189 72.8379 159.957 72.6073C159.725 72.3768 159.606 72.0506 159.606 71.6289V68.8735H158.787V68.3561H159.606V67.3608H160.223V68.3561H161.613V68.8735H160.223V71.5951C160.223 71.865 160.29 72.0731 160.426 72.2137C160.562 72.3543 160.76 72.4274 161.014 72.4274C161.144 72.4274 161.263 72.4049 161.381 72.3655C161.5 72.3261 161.602 72.2699 161.692 72.1912L161.913 72.6354Z"
                                    fill="#1E1E1E" />
                                <path
                                    d="M166.011 68.7723C166.328 69.0703 166.492 69.5089 166.492 70.0937V72.9166H165.898V72.2081C165.757 72.4442 165.553 72.6298 165.282 72.7591C165.011 72.8941 164.694 72.956 164.321 72.956C163.812 72.956 163.405 72.8379 163.1 72.5904C162.8 72.3486 162.648 72.0281 162.648 71.6289C162.648 71.2409 162.789 70.9316 163.072 70.6954C163.354 70.4592 163.801 70.3411 164.417 70.3411H165.87V70.0656C165.87 69.672 165.757 69.3739 165.542 69.1715C165.321 68.9691 164.999 68.8622 164.575 68.8622C164.287 68.8622 164.004 68.9072 163.739 69.0028C163.473 69.0984 163.241 69.2277 163.049 69.3964L162.772 68.9353C163.004 68.7385 163.281 68.5867 163.609 68.4799C163.937 68.373 164.276 68.3224 164.637 68.3224C165.237 68.3224 165.695 68.4742 166.011 68.7723ZM165.316 72.2306C165.565 72.0731 165.751 71.8426 165.875 71.5445V70.8023H164.44C163.654 70.8023 163.264 71.0722 163.264 71.6176C163.264 71.8819 163.366 72.09 163.569 72.2474C163.773 72.3992 164.055 72.478 164.423 72.478C164.767 72.4724 165.067 72.3936 165.316 72.2306Z"
                                    fill="#1E1E1E" />
                                <path d="M168.787 66.4892H168.17V72.9166H168.787V66.4892Z" fill="#1E1E1E" />
                                <path
                                    d="M174.106 67.4058H171.963V66.8491H176.893V67.4058H174.75V72.911H174.106V67.4058Z"
                                    fill="#1E1E1E" />
                                <path
                                    d="M181.302 70.8247H177.475C177.509 71.2971 177.695 71.6795 178.023 71.9719C178.351 72.2643 178.769 72.4105 179.278 72.4105C179.561 72.4105 179.821 72.3599 180.064 72.2587C180.301 72.1575 180.505 72.0112 180.68 71.8144L181.031 72.2137C180.827 72.4555 180.573 72.6411 180.267 72.7704C179.962 72.8997 179.629 72.9616 179.261 72.9616C178.792 72.9616 178.374 72.8604 178.012 72.6635C177.65 72.4667 177.368 72.1912 177.164 71.8369C176.961 71.4827 176.859 71.089 176.859 70.6448C176.859 70.2006 176.955 69.8013 177.153 69.4527C177.345 69.0984 177.616 68.8285 177.955 68.6317C178.295 68.4349 178.679 68.3393 179.097 68.3393C179.521 68.3393 179.9 68.4349 180.239 68.6317C180.578 68.8285 180.838 69.0984 181.031 69.4471C181.223 69.7957 181.319 70.1949 181.319 70.6448L181.302 70.8247ZM177.984 69.2727C177.684 69.5539 177.515 69.9194 177.475 70.3693H180.72C180.68 69.9194 180.51 69.5539 180.211 69.2727C179.911 68.9916 179.538 68.851 179.092 68.851C178.651 68.851 178.283 68.9916 177.984 69.2727Z"
                                    fill="#1E1E1E" />
                                <path
                                    d="M183.258 72.6635C182.902 72.4667 182.619 72.1912 182.415 71.8369C182.212 71.4827 182.11 71.0834 182.11 70.6392C182.11 70.1949 182.212 69.7957 182.415 69.4471C182.619 69.0928 182.896 68.8229 183.258 68.6261C183.614 68.4292 184.021 68.3336 184.473 68.3336C184.869 68.3336 185.219 68.4124 185.53 68.5642C185.841 68.716 186.084 68.941 186.265 69.2334L185.801 69.5426C185.649 69.3177 185.457 69.149 185.225 69.0366C184.993 68.9241 184.739 68.8679 184.467 68.8679C184.14 68.8679 183.84 68.941 183.574 69.0872C183.309 69.2334 183.105 69.4414 182.958 69.717C182.811 69.9869 182.738 70.2962 182.738 70.6448C182.738 70.9991 182.811 71.3083 182.958 71.5726C183.105 71.8426 183.314 72.0506 183.574 72.1968C183.84 72.343 184.134 72.4161 184.467 72.4161C184.739 72.4161 184.993 72.3599 185.225 72.2531C185.457 72.1462 185.649 71.9775 185.801 71.7526L186.265 72.0619C186.084 72.3543 185.841 72.5792 185.525 72.731C185.214 72.8829 184.863 72.9616 184.473 72.9616C184.021 72.956 183.614 72.8604 183.258 72.6635Z"
                                    fill="#1E1E1E" />
                                <path
                                    d="M191.121 68.8229C191.46 69.1546 191.63 69.6382 191.63 70.2737V72.9166H191.013V70.3355C191.013 69.8632 190.895 69.5033 190.657 69.2559C190.42 69.0084 190.081 68.8847 189.64 68.8847C189.148 68.8847 188.758 69.0309 188.47 69.3233C188.181 69.6157 188.04 70.015 188.04 70.5323V72.9222H187.424V66.4949H188.04V69.1603C188.21 68.896 188.441 68.6879 188.735 68.5473C189.029 68.4011 189.368 68.3336 189.753 68.3336C190.324 68.3224 190.782 68.4911 191.121 68.8229Z"
                                    fill="#1E1E1E" />
                                <path
                                    d="M197.011 68.8229C197.35 69.1546 197.52 69.6382 197.52 70.2737V72.9166H196.904V70.3355C196.904 69.8632 196.785 69.5033 196.547 69.2559C196.31 69.0084 195.971 68.8847 195.53 68.8847C195.038 68.8847 194.648 69.0309 194.36 69.3233C194.072 69.6157 193.93 70.015 193.93 70.5323V72.9222H193.314V68.3674H193.908V69.2052C194.077 68.9297 194.309 68.7104 194.609 68.5586C194.908 68.4067 195.253 68.328 195.649 68.328C196.214 68.3224 196.672 68.4911 197.011 68.8229Z"
                                    fill="#1E1E1E" />
                                <path
                                    d="M199.894 72.6579C199.538 72.4611 199.261 72.1856 199.057 71.8313C198.854 71.477 198.752 71.0834 198.752 70.6392C198.752 70.1949 198.854 69.7957 199.057 69.4471C199.261 69.0928 199.538 68.8229 199.894 68.6261C200.25 68.4292 200.646 68.3336 201.087 68.3336C201.528 68.3336 201.923 68.4292 202.279 68.6261C202.635 68.8229 202.912 69.0984 203.11 69.4471C203.308 69.8013 203.41 70.1949 203.41 70.6392C203.41 71.0834 203.308 71.4827 203.11 71.8313C202.912 72.1799 202.635 72.4611 202.279 72.6579C201.923 72.8547 201.528 72.956 201.087 72.956C200.646 72.956 200.25 72.8547 199.894 72.6579ZM201.963 72.1912C202.223 72.045 202.421 71.8369 202.568 71.5614C202.715 71.2915 202.788 70.9822 202.788 70.6336C202.788 70.2849 202.715 69.9756 202.568 69.7057C202.421 69.4358 202.223 69.2277 201.963 69.0759C201.703 68.9297 201.415 68.8566 201.087 68.8566C200.759 68.8566 200.47 68.9297 200.21 69.0759C199.95 69.2221 199.747 69.4302 199.6 69.7057C199.453 69.9756 199.379 70.2849 199.379 70.6336C199.379 70.9822 199.453 71.2915 199.6 71.5614C199.747 71.8313 199.95 72.0394 200.21 72.1912C200.47 72.3374 200.759 72.4105 201.087 72.4105C201.415 72.4105 201.703 72.3374 201.963 72.1912Z"
                                    fill="#1E1E1E" />
                                <path d="M205.292 66.4892H204.676V72.9166H205.292V66.4892Z" fill="#1E1E1E" />
                                <path
                                    d="M207.695 72.6579C207.339 72.4611 207.062 72.1856 206.858 71.8313C206.655 71.477 206.553 71.0834 206.553 70.6392C206.553 70.1949 206.655 69.7957 206.858 69.4471C207.062 69.0928 207.339 68.8229 207.695 68.6261C208.051 68.4292 208.447 68.3336 208.887 68.3336C209.328 68.3336 209.724 68.4292 210.08 68.6261C210.436 68.8229 210.713 69.0984 210.911 69.4471C211.109 69.8013 211.211 70.1949 211.211 70.6392C211.211 71.0834 211.109 71.4827 210.911 71.8313C210.713 72.1856 210.436 72.4611 210.08 72.6579C209.724 72.8547 209.328 72.956 208.887 72.956C208.447 72.956 208.051 72.8547 207.695 72.6579ZM209.764 72.1912C210.024 72.045 210.222 71.8369 210.369 71.5614C210.515 71.2915 210.583 70.9822 210.583 70.6336C210.583 70.2849 210.51 69.9756 210.369 69.7057C210.222 69.4358 210.024 69.2277 209.764 69.0759C209.504 68.9297 209.215 68.8566 208.887 68.8566C208.56 68.8566 208.271 68.9297 208.011 69.0759C207.751 69.2221 207.548 69.4302 207.401 69.7057C207.254 69.9756 207.18 70.2849 207.18 70.6336C207.18 70.9822 207.254 71.2915 207.401 71.5614C207.548 71.8313 207.751 72.0394 208.011 72.1912C208.271 72.3374 208.56 72.4105 208.887 72.4105C209.215 72.4105 209.504 72.3374 209.764 72.1912Z"
                                    fill="#1E1E1E" />
                                <path
                                    d="M216.711 68.3561V72.3543C216.711 73.1303 216.519 73.7038 216.14 74.075C215.761 74.4461 215.185 74.6317 214.422 74.6317C213.998 74.6317 213.596 74.5698 213.218 74.4461C212.839 74.3224 212.528 74.1481 212.29 73.9288L212.601 73.462C212.822 73.6589 213.087 73.8107 213.404 73.9232C213.721 74.03 214.054 74.0862 214.399 74.0862C214.981 74.0862 215.405 73.9513 215.676 73.6814C215.948 73.4114 216.083 72.9953 216.083 72.433V71.8538C215.891 72.1406 215.643 72.3599 215.332 72.5117C215.021 72.6635 214.676 72.7366 214.303 72.7366C213.873 72.7366 213.483 72.6411 213.133 72.4555C212.782 72.2699 212.505 72.0056 212.307 71.6682C212.11 71.3308 212.008 70.9485 212.008 70.5211C212.008 70.0937 212.11 69.7113 212.307 69.3796C212.505 69.0422 212.782 68.7835 213.127 68.5979C213.478 68.4124 213.868 68.3224 214.303 68.3224C214.693 68.3224 215.043 68.4011 215.354 68.5586C215.665 68.716 215.92 68.941 216.112 69.2334V68.3618H216.711V68.3561ZM215.269 71.9831C215.535 71.8425 215.744 71.6457 215.891 71.3927C216.038 71.1396 216.112 70.8472 216.112 70.5267C216.112 70.2006 216.038 69.9138 215.891 69.6664C215.744 69.4133 215.535 69.2165 215.275 69.0759C215.009 68.9353 214.71 68.8622 214.376 68.8622C214.048 68.8622 213.749 68.9297 213.483 69.0703C213.218 69.2109 213.014 69.4077 212.867 69.6607C212.72 69.9138 212.647 70.2006 212.647 70.5267C212.647 70.8472 212.72 71.1396 212.867 71.3927C213.014 71.6457 213.223 71.8425 213.483 71.9831C213.749 72.1237 214.043 72.1968 214.376 72.1968C214.71 72.1968 215.004 72.1237 215.269 71.9831Z"
                                    fill="#1E1E1E" />
                                <path
                                    d="M222.29 68.3561L220.001 73.4564C219.814 73.8838 219.6 74.1874 219.356 74.3674C219.113 74.5473 218.819 74.6373 218.475 74.6373C218.254 74.6373 218.051 74.6036 217.858 74.5305C217.666 74.463 217.502 74.3561 217.361 74.2212L217.649 73.7601C217.881 73.9906 218.158 74.1087 218.486 74.1087C218.695 74.1087 218.876 74.0525 219.023 73.9344C219.17 73.8163 219.311 73.6195 219.436 73.344L219.633 72.8997L217.587 68.3561H218.232L219.956 72.2249L221.68 68.3561H222.29Z"
                                    fill="#1E1E1E" />
                                <path
                                    d="M225.953 72.7479C225.541 72.6017 225.218 72.4105 224.992 72.1743L225.247 71.6795C225.467 71.8988 225.761 72.0787 226.128 72.2137C226.496 72.3486 226.869 72.4161 227.259 72.4161C227.807 72.4161 228.214 72.3149 228.486 72.1181C228.757 71.9213 228.893 71.6626 228.893 71.3421C228.893 71.1003 228.819 70.9035 228.672 70.7629C228.525 70.6167 228.344 70.5098 228.13 70.4311C227.915 70.3524 227.615 70.268 227.231 70.1781C226.773 70.06 226.405 69.9531 226.134 69.8463C225.863 69.7395 225.625 69.5764 225.433 69.3571C225.241 69.1378 225.139 68.8397 225.139 68.463C225.139 68.1593 225.218 67.8782 225.382 67.6251C225.546 67.3721 225.795 67.1753 226.128 67.0234C226.468 66.8716 226.88 66.7985 227.383 66.7985C227.734 66.7985 228.073 66.8435 228.407 66.9391C228.74 67.0347 229.028 67.164 229.271 67.3327L229.057 67.8444C228.802 67.6757 228.531 67.552 228.237 67.4677C227.949 67.3833 227.66 67.344 227.383 67.344C226.846 67.344 226.445 67.4452 226.179 67.6532C225.914 67.8613 225.772 68.12 225.772 68.4461C225.772 68.6879 225.846 68.8847 225.993 69.0309C226.14 69.1771 226.326 69.2896 226.552 69.3683C226.773 69.4471 227.078 69.5314 227.451 69.6214C227.898 69.7282 228.26 69.8407 228.537 69.9475C228.814 70.0544 229.045 70.2174 229.238 70.4311C229.43 70.6504 229.526 70.9428 229.526 71.3083C229.526 71.612 229.441 71.8932 229.277 72.1462C229.113 72.3993 228.859 72.5961 228.514 72.7423C228.169 72.8885 227.751 72.9616 227.253 72.9616C226.801 72.9672 226.366 72.8941 225.953 72.7479Z"
                                    fill="#1E1E1E" />
                                <path
                                    d="M231.476 72.6579C231.12 72.4611 230.843 72.1856 230.639 71.8313C230.436 71.477 230.334 71.0834 230.334 70.6392C230.334 70.1949 230.436 69.7957 230.639 69.4471C230.843 69.0928 231.12 68.8229 231.476 68.6261C231.832 68.4292 232.228 68.3336 232.669 68.3336C233.11 68.3336 233.505 68.4292 233.861 68.6261C234.218 68.8229 234.495 69.0984 234.692 69.4471C234.89 69.8013 234.992 70.1949 234.992 70.6392C234.992 71.0834 234.89 71.4827 234.692 71.8313C234.495 72.1799 234.218 72.4611 233.861 72.6579C233.505 72.8547 233.11 72.956 232.669 72.956C232.228 72.956 231.826 72.8547 231.476 72.6579ZM233.545 72.1912C233.805 72.045 234.003 71.8369 234.15 71.5614C234.297 71.2915 234.365 70.9822 234.365 70.6336C234.365 70.2849 234.291 69.9756 234.15 69.7057C234.003 69.4358 233.805 69.2277 233.545 69.0759C233.285 68.9297 232.997 68.8566 232.669 68.8566C232.341 68.8566 232.053 68.9297 231.793 69.0759C231.533 69.2221 231.329 69.4302 231.182 69.7057C231.035 69.9756 230.962 70.2849 230.962 70.6336C230.962 70.9822 231.035 71.2915 231.182 71.5614C231.329 71.8313 231.533 72.0394 231.793 72.1912C232.053 72.3374 232.341 72.4105 232.669 72.4105C232.991 72.4105 233.285 72.3374 233.545 72.1912Z"
                                    fill="#1E1E1E" />
                                <path d="M236.869 66.4892H236.253V72.9166H236.869V66.4892Z" fill="#1E1E1E" />
                                <path
                                    d="M242.719 68.3561V72.911H242.126V72.0787C241.962 72.3543 241.742 72.5736 241.453 72.7254C241.171 72.8772 240.843 72.956 240.481 72.956C239.882 72.956 239.413 72.7929 239.068 72.4611C238.723 72.1293 238.548 71.6401 238.548 71.0047V68.3618H239.164V70.9428C239.164 71.4208 239.283 71.7863 239.52 72.0337C239.757 72.2812 240.097 72.4049 240.537 72.4049C241.018 72.4049 241.397 72.2587 241.679 71.9663C241.956 71.6739 242.098 71.269 242.098 70.7516V68.3618H242.719V68.3561Z"
                                    fill="#1E1E1E" />
                                <path
                                    d="M246.863 72.6354C246.744 72.7366 246.603 72.821 246.433 72.8716C246.264 72.9278 246.083 72.956 245.896 72.956C245.467 72.956 245.133 72.8379 244.901 72.6073C244.67 72.3768 244.551 72.0506 244.551 71.6289V68.8735H243.731V68.3561H244.551V67.3608H245.167V68.3561H246.558V68.8735H245.167V71.5951C245.167 71.865 245.235 72.0731 245.371 72.2137C245.506 72.3543 245.704 72.4274 245.958 72.4274C246.088 72.4274 246.207 72.4049 246.326 72.3655C246.445 72.3261 246.546 72.2699 246.637 72.1912L246.863 72.6354Z"
                                    fill="#1E1E1E" />
                                <path
                                    d="M247.977 67.2315C247.892 67.1471 247.847 67.0403 247.847 66.9222C247.847 66.8041 247.892 66.7029 247.977 66.6186C248.061 66.5342 248.169 66.4892 248.299 66.4892C248.429 66.4892 248.536 66.5286 248.621 66.6129C248.706 66.6973 248.751 66.7985 248.751 66.911C248.751 67.0403 248.706 67.1471 248.621 67.2315C248.536 67.3158 248.429 67.3608 248.299 67.3608C248.174 67.3608 248.067 67.3215 247.977 67.2315ZM247.988 68.3561H248.604V72.911H247.988V68.3561Z"
                                    fill="#1E1E1E" />
                                <path
                                    d="M251.006 72.6579C250.65 72.4611 250.373 72.1856 250.17 71.8313C249.966 71.477 249.865 71.0834 249.865 70.6392C249.865 70.1949 249.966 69.7957 250.17 69.4471C250.373 69.0928 250.65 68.8229 251.006 68.6261C251.363 68.4292 251.758 68.3336 252.199 68.3336C252.64 68.3336 253.036 68.4292 253.392 68.6261C253.748 68.8229 254.025 69.0984 254.223 69.4471C254.421 69.8013 254.522 70.1949 254.522 70.6392C254.522 71.0834 254.421 71.4827 254.223 71.8313C254.025 72.1799 253.748 72.4611 253.392 72.6579C253.036 72.8547 252.64 72.956 252.199 72.956C251.758 72.956 251.363 72.8547 251.006 72.6579ZM253.075 72.1912C253.335 72.045 253.533 71.8369 253.68 71.5614C253.827 71.2915 253.895 70.9822 253.895 70.6336C253.895 70.2849 253.821 69.9756 253.68 69.7057C253.533 69.4358 253.335 69.2277 253.075 69.0759C252.815 68.9297 252.527 68.8566 252.199 68.8566C251.871 68.8566 251.583 68.9297 251.323 69.0759C251.063 69.2221 250.859 69.4302 250.712 69.7057C250.565 69.9756 250.492 70.2849 250.492 70.6336C250.492 70.9822 250.565 71.2915 250.712 71.5614C250.859 71.8313 251.063 72.0394 251.323 72.1912C251.583 72.3374 251.871 72.4105 252.199 72.4105C252.527 72.4105 252.815 72.3374 253.075 72.1912Z"
                                    fill="#1E1E1E" />
                                <path
                                    d="M259.491 68.8229C259.83 69.1546 260 69.6382 260 70.2737V72.9166H259.384V70.3355C259.384 69.8632 259.265 69.5033 259.028 69.2559C258.79 69.0084 258.451 68.8847 258.01 68.8847C257.518 68.8847 257.128 69.0309 256.84 69.3233C256.552 69.6157 256.41 70.015 256.41 70.5323V72.9222H255.794V68.3674H256.388V69.2052C256.557 68.9297 256.789 68.7104 257.089 68.5586C257.388 68.4067 257.733 68.328 258.129 68.328C258.694 68.3224 259.152 68.4911 259.491 68.8229Z"
                                    fill="#1E1E1E" />
                                <path d="M97.765 78.8547H260V78.3655H97.765" fill="url(#paint9_linear_3164_443)" />
                                <defs>
                                    <linearGradient id="paint0_linear_3164_443" x1="-66.5637" y1="74.2339" x2="-41.734"
                                        y2="-35.0123" gradientUnits="userSpaceOnUse">
                                        <stop stop-color="#B61F24" />
                                        <stop offset="1" stop-color="#EEC21B" />
                                    </linearGradient>
                                    <linearGradient id="paint1_linear_3164_443" x1="-175.803" y1="-3.66209" x2="320.741"
                                        y2="919.132" gradientUnits="userSpaceOnUse">
                                        <stop stop-color="#B61F24" />
                                        <stop offset="1" stop-color="#EEC21B" />
                                    </linearGradient>
                                    <linearGradient id="paint2_linear_3164_443" x1="-399.941" y1="-29.1121" x2="96.0506"
                                        y2="892.002" gradientUnits="userSpaceOnUse">
                                        <stop stop-color="#B61F24" />
                                        <stop offset="1" stop-color="#EEC21B" />
                                    </linearGradient>
                                    <linearGradient id="paint3_linear_3164_443" x1="-618.599" y1="-57.6007"
                                        x2="-123.986" y2="860.177" gradientUnits="userSpaceOnUse">
                                        <stop stop-color="#B61F24" />
                                        <stop offset="1" stop-color="#EEC21B" />
                                    </linearGradient>
                                    <linearGradient id="paint4_linear_3164_443" x1="-997.591" y1="-55.1359"
                                        x2="-748.774" y2="703.891" gradientUnits="userSpaceOnUse">
                                        <stop stop-color="#B61F24" />
                                        <stop offset="1" stop-color="#EEC21B" />
                                    </linearGradient>
                                    <linearGradient id="paint5_linear_3164_443" x1="-1013.64" y1="-117.558"
                                        x2="-517.922" y2="798.532" gradientUnits="userSpaceOnUse">
                                        <stop stop-color="#B61F24" />
                                        <stop offset="1" stop-color="#EEC21B" />
                                    </linearGradient>
                                    <linearGradient id="paint6_linear_3164_443" x1="-3873.31" y1="-896.699" x2="-946.84"
                                        y2="2336.63" gradientUnits="userSpaceOnUse">
                                        <stop stop-color="#B61F24" />
                                        <stop offset="1" stop-color="#EEC21B" />
                                    </linearGradient>
                                    <linearGradient id="paint7_linear_3164_443" x1="-1319.69" y1="-163.764"
                                        x2="-823.057" y2="758.898" gradientUnits="userSpaceOnUse">
                                        <stop stop-color="#B61F24" />
                                        <stop offset="1" stop-color="#EEC21B" />
                                    </linearGradient>
                                    <linearGradient id="paint8_linear_3164_443" x1="-1541.76" y1="-188.991"
                                        x2="-1045.77" y2="732.123" gradientUnits="userSpaceOnUse">
                                        <stop stop-color="#B61F24" />
                                        <stop offset="1" stop-color="#EEC21B" />
                                    </linearGradient>
                                    <linearGradient id="paint9_linear_3164_443" x1="138.198" y1="119.088" x2="219.136"
                                        y2="37.7233" gradientUnits="userSpaceOnUse">
                                        <stop stop-color="#B61F24" />
                                        <stop offset="1" stop-color="#EEC21B" />
                                    </linearGradient>
                                </defs>
                            </svg>